# xmcd CD database file
#
# Track frame offsets:
#	150
#	10140
#	23266
#	39410
#	51194
#	59661
#	70610
#	80974
#	90321
#	95323
#	105841
#	116093
#	124381
#	134198
#	144954
#	155679
#	167829
#	181798
#	194115
#	206854
#	217753
#	228352
#	241667
#
# Disc length: 3372 seconds
#
# Revision: 0
# Processed by: cddbd v1.5.1PL2 Copyright (c) Steve Scherf et al.
# Submitted via: Feurio! 1.68 - http://www.feurio.com
#
DISCID=3b0d2a17
DTITLE=Charlie Rich - Lonely Weekends
DYEAR=1900
DGENRE=Country Soul
TTITLE0=Lonely Weekends
TTITLE1=Easy Money
TTITLE2=If You Knew
TTITLE3=Caught in the Middle
TTITLE4=Donna Lee
TTITLE5=Gonna Be Waitin'
TTITLE6=Everything I Do Is Wrong
TTITLE7=Philadelphia Baby
TTITLE8=Blue Suede Shoes
TTITLE9=Goodbye Maryann
TTITLE10=My Baby Done Left Me
TTITLE11=Rebound
TTITLE12=Whirlwind
TTITLE13=Finally Found Out
TTITLE14=I Need Your Love
TTITLE15=It's Too Late
TTITLE16=Sittin And Thinkin
TTITLE17=There Won't Be Anymore
TTITLE18=Big Man
TTITLE19=Who Will The Next Fool Be
TTITLE20=Yes Ma'am
TTITLE21=Midnight Blues
TTITLE22=Breakup
EXTD=Collectables CD 6015 (another album of SUN hits)
EXTT0=
EXTT1=
EXTT2=
EXTT3=
EXTT4=
EXTT5=
EXTT6=
EXTT7=
EXTT8=
EXTT9=
EXTT10=
EXTT11=
EXTT12=
EXTT13=
EXTT14=
EXTT15=
EXTT16=
EXTT17=
EXTT18=
EXTT19=
EXTT20=
EXTT21=
EXTT22=
PLAYORDER=
